<svg xmlns="http://www.w3.org/2000/svg" width="1200" height="600" xmlns:v="https://vecta.io/nano"><path d="M0 0h1200v600H0z" fill="#0098c3"/><path d="M0 200h1200v200H0z" fill="#e00034"/><g transform="matrix(.4 0 0 .4 176.55415 -105.85989)"><circle r="225" cy="1014.65" cx="1011.115" fill="#fff"/><circle r="180" cy="1014.65" cx="1086.115" fill="#e00034"/></g><path d="M0 400h1200v200H0z" fill="#00ae65"/><path d="M716.38 335.331l-25.797-12.24-9.548 26.91-9.586-26.896-25.78 12.276 12.24-25.797-26.91-9.548 26.896-9.586-12.276-25.78 25.797 12.24 9.548-26.91 9.586 26.896 25.78-12.276-12.24 25.797 26.91 9.548-26.896 9.586z" fill="#fff"/></svg>