<?xml version="1.0" encoding="utf-8"?>
<!-- Generator: Adobe Illustrator 22.0.1, SVG Export Plug-In . SVG Version: 6.00 Build 0)  -->
<svg version="1.1" id="레이어_1" xmlns="http://www.w3.org/2000/svg" xmlns:xlink="http://www.w3.org/1999/xlink" x="0px"
	 y="0px" viewBox="0 0 800 533" style="enable-background:new 0 0 800 533;" xml:space="preserve">
<style type="text/css">
	.st0{fill:#005BBB;}
	.st1{fill:#FFD500;}
	.st2{fill:#E2E2E2;}
	.st3{fill:#C0A000;}
	.st4{fill:#C00000;}
	.st5{fill:#999999;}
</style>
<g>
	<rect class="st0" width="800" height="533"/>
	<path d="M199.5,361c-0.1-0.2-10.2-17.2-25-21h-62.4c-0.3,0-0.8,0-1.5,0c-13.7,0-29.5-6.9-32.6-26.4l-0.1-0.3V65h250v248.3l-0.1,0.3
		c-3.1,19.5-18.9,26.4-32.6,26.4c0,0,0,0,0,0c-0.7,0-1.2,0-1.5,0h-62.4c-14.8,3.8-24.9,20.8-25,21l-3.5,6L199.5,361z"/>
	<path class="st1" d="M203,69H82v244c4,25,30,23,30,23h63c17,4,28,23,28,23s11-19,28-23h63c0,0,26,2,30-23V69H203z"/>
	<path d="M183,113c0,0,0-4.9,0-6.3s6.7,0,6.3-6.7s-6.3-5.4-6.3-5.4l2.7-3.1c0,0,3.1,2.2,3.1,0c0-2.2-1.8-1.8-1.8-1.8s1.8-3.1,0-3.1
		c-1.8,0-2.7,1.3-2.7,2.2s-1.8-1.3-2.7-0.4c-0.9,0.9-0.9,2.2,0,2.7c0.9,0.4-2.2,2.2-2.2,2.2s-0.9-4.9-5.8-4.5s-6.7,10.3-4.9,13.8
		l-4.5,4.5C164.2,107.2,172.7,115.7,183,113z"/>
	<path class="st2" d="M180.8,112.5c0,0,0.4-4.4-0.9-5.4c-1.3-1-3.9-2.9-5.7-2.9c-1.8,0-1.3-1.5-3.1-1c-1.8,0.5-4.4,3.9-4.4,3.9
		S174.2,113.9,180.8,112.5z"/>
	<path class="st2" d="M183.1,96.3c0,0,3.1,0.9,3.1,3.1c0,2.2-0.4,6.2-5.3,4.4c-4.9-1.8-5.8-0.9-7.6-3.1c-0.9-1.3-1.3,0.4-2.7-0.4
		s0.4-8.4,3.6-8c3.1,0.4,3.1,1.3,2.7,2.7c-0.4,1.3-1.3,2.7,0,3.1c1.3,0.4,0.9-2.7,2.2-3.1c1.3-0.4,3.1-2.2,3.1-0.9
		c0,1.3-2.2,4.4-1.8,5.8C180.9,101.2,182.2,95.9,183.1,96.3z"/>
	<path d="M223,113c0,0,0-4.9,0-6.3s-6.7,0-6.3-6.7s6.3-5.4,6.3-5.4l-2.7-3.1c0,0-3.1,2.2-3.1,0c0-2.2,1.8-1.8,1.8-1.8
		s-1.8-3.1,0-3.1c1.8,0,2.7,1.3,2.7,2.2s1.8-1.3,2.7-0.4c0.9,0.9,0.9,2.2,0,2.7c-0.9,0.4,2.2,2.2,2.2,2.2s0.9-4.9,5.8-4.5
		s6.7,10.3,4.9,13.8l4.5,4.5C241.8,107.2,233.3,115.7,223,113z"/>
	<path class="st2" d="M225.2,112.5c0,0-0.4-4.4,0.9-5.4c1.3-1,3.9-2.9,5.7-2.9c1.8,0,1.3-1.5,3.1-1c1.8,0.5,4.4,3.9,4.4,3.9
		S231.8,113.9,225.2,112.5z"/>
	<path class="st2" d="M222.9,96.3c0,0-3.1,0.9-3.1,3.1c0,2.2,0.4,6.2,5.3,4.4c4.9-1.8,5.8-0.9,7.6-3.1c0.9-1.3,1.3,0.4,2.7-0.4
		s-0.4-8.4-3.6-8c-3.1,0.4-3.1,1.3-2.7,2.7c0.4,1.3,1.3,2.7,0,3.1c-1.3,0.4-0.9-2.7-2.2-3.1c-1.3-0.4-3.1-2.2-3.1-0.9
		c0,1.3,2.2,4.4,1.8,5.8C225.1,101.2,223.8,95.9,222.9,96.3z"/>
	<path d="M154.3,261.2c0,0-1.8,4.3-6.8,5.8s-8,8-13,8s-10,7.5-3,9s19,0,15,14c-1,2-10.5-8.5-14-4.5s-5.5,10-12,6c-1-1.5,3.5-1.5,3-4
		s-2-2-3-4.5s-4.5,2.5-8,1s1,5-1.5,5c-2,0-4.5-2.5-6-7s6.5-6.5,5-9s-4.5-3.5-7-2s-1.5,6.5-3.5,6s-4-3.5-4-4.5s-3,0-1-5.5
		s5.5-9.5,13.5-7s11.5,8,26.5-6.5s21-17,21-17L154.3,261.2z"/>
	<path class="st3" d="M155.5,250.1v7c0,0-4,6.5-8.5,5.5s-6,0.5-7,3s-3,4.5-7,5.5s-9,6-7,10s3.5,5,6,5s8,1,5.5,2.5s-7.5-1-8,0.5
		s2.5,6-1.5,5.5s-4.5-2.5-4-5.5s-7,0-9.5-1.5s-2-6,0-7.5s1-3.5-1.5-3.5s-10-2.5-12-1s-4-2.5,0-4.5s8.5,1,11.5,2s8,1.5,13.5-2
		s12-9.5,14-11S151.5,250.1,155.5,250.1z"/>
	<path d="M251.7,261.2c0,0,1.8,4.3,6.8,5.8s8,8,13,8s10,7.5,3,9s-19,0-15,14c1,2,10.5-8.5,14-4.5s5.5,10,12,6c1-1.5-3.5-1.5-3-4
		s2-2,3-4.5s4.5,2.5,8,1s-1,5,1.5,5c2,0,4.5-2.5,6-7s-6.5-6.5-5-9s4.5-3.5,7-2s1.5,6.5,3.5,6s4-3.5,4-4.5s3,0,1-5.5s-5.5-9.5-13.5-7
		s-11.5,8-26.5-6.5s-21-17-21-17L251.7,261.2z"/>
	<path class="st3" d="M250.5,250.1v7c0,0,4,6.5,8.5,5.5s6,0.5,7,3s3,4.5,7,5.5s9,6,7,10s-3.5,5-6,5s-8,1-5.5,2.5s7.5-1,8,0.5
		s-2.5,6,1.5,5.5s4.5-2.5,4-5.5s7,0,9.5-1.5s2-6,0-7.5s-1-3.5,1.5-3.5s10-2.5,12-1s4-2.5,0-4.5s-8.5,1-11.5,2s-8,1.5-13.5-2
		s-12-9.5-14-11S254.5,250.1,250.5,250.1z"/>
	<path d="M300,212.6c2.5-22,3-53.5-5.5-60.5s-24-10.5-34-2s-19,19.5-30,19s-6.5-11.5-2-10s-5-7.5-3.5-11s4.5-2,6-6.5s5-10.5,9.5-8.5
		s6.5,4.5,12,2s4.5-5.5,3-6.5c-1.5-1-5,3-11.5-2c-6.5-5-6.5-3.5-2-5s9,2,13-2s11-3.5,12-4.5s-3-9-10.5-6.5c-3.5,2-4.5-7-15.5-5.5
		s-12,10.5-23.5,5c-4.5-1,0.5,9.5,7.5,9.5s-15.5,11.5-14,14c0,2,6,3.5,2,7.5s-8.5,7.5-7,10s3,10.5-3,11c-6-0.5-4.5-8.5-3-11
		s-3-6-7-10s2-5.5,2-7.5c1.5-2.5-21-14-14-14s12-10.5,7.5-9.5c-11.5,5.5-12.5-3.5-23.5-5s-12,7.5-15.5,5.5
		c-7.5-2.5-11.5,5.5-10.5,6.5s8,0.5,12,4.5s8.5,0.5,13,2s4.5,0-2,5c-6.5,5-10,1-11.5,2c-1.5,1-2.5,4,3,6.5s7.5,0,12-2s8,4,9.5,8.5
		s4.5,3,6,6.5s-8,12.5-3.5,11s9,9.5-2,10s-20-10.5-30-19s-25.5-5-34,2s-8,38.5-5.5,60.5s-10.5,45-2.5,47.5c10,2,16-16.5,16-16.5
		c8,1,11.5-11.5,11.5-11.5c4.5-1,8-10.5,8-10.5c7,3.5,12.5-6,12.5-6c6-2,7-12.5,10-4.5s13,11,13,11v8.5c-4.5-3.5-18-3.5-20.5,4
		s-4.5,38.5,0,40s8.5-5,8.5-5c4,1.5,5-4.5,5-4.5c4,0.5,4-5.5,4-5.5c4,0.5,2-0.5,5.5-8s3.5-1,5,5.5s-8.5,27.5-7.5,39
		s9.5,10.5,9.5,10.5c-0.5,9.5,9.5,12,9.5,12c1.5,6,9.5,9,9.5,9s8-3,9.5-9c0,0,10-2.5,9.5-12c0,0,8.5,1,9.5-10.5s-9-32.5-7.5-39
		s1.5-13,5-5.5s1.5,8.5,5.5,8c0,0,0,6,4,5.5c0,0,1,6,5,4.5c0,0,4,6.5,8.5,5s2.5-32.5,0-40s-16-7.5-20.5-4v-8.5c0,0,10-3,13-11
		s4,2.5,10,4.5c0,0,5.5,9.5,12.5,6c0,0,3.5,9.5,8,10.5c0,0,3.5,12.5,11.5,11.5c0,0,6,18.5,16,16.5
		C310.5,257.6,297.5,234.6,300,212.6z"/>
	<path d="M162.5,120.5c0,0-21,10.1-29,9.6s-11-6-8.5-15c1.5-5.5,1.8,3.8,2.8,5.8s2.8,5.4,12.4,2.9c9.6-2.4,15.4-5.1,21.8-5.7
		L162.5,120.5z"/>
	<path class="st4" d="M155.5,121.1c0,0-16.6,7-21.1,7s-9.4-1.6-8.9-8c0-3.1,0.5,1.1,2.5,3.5c1.5,1.8,3.4,2.3,6.7,2
		c7.6-0.7,21.1-5.2,21.1-5.2L155.5,121.1z"/>
	<path class="st5" d="M175,126.1c0,0,2,1,0,1.5c-2,0.5-4.5-1.5-7,0c-2.5,1.5,6.5,6.5,7,8s6,2.5,6.5-1.5s3-4,4-2.5s5,3.5,6,0.5
		s-7-5.5-9.5-8s-5-4-5-6s-5-4-6.5-2.5s-3.5,1-5.5,0.5s-2.5-2.5-4-2.5s-5.5,1.5-7.5,0s-4-3.5-6.5-3s-6,2-5.5,3.5s5-1,8.5,2.5
		c3,3,4,3,7,3.5s9.5-1.5,14,1.5S171.5,125.1,175,126.1z"/>
	<path class="st5" d="M155.5,109.6c0,0-1,2,1.5,2.5s5-2.5,7.5-1.5s6.5,2,9,3s4,3.5,7.5,2c2-0.5-5-1.5-6-3s-7.5-6.5-10-7
		S157.5,104.1,155.5,109.6z"/>
	<path class="st5" d="M185,143.6c0,0,3,2,2.5,5s-1.5,4.5-3.5,4s0.5-5.5-1.5-6.5s-1-4-2-4s-3.5,1-3-2s3.5-3,4-1.5
		S184,143.1,185,143.6z"/>
	<path class="st5" d="M189.5,139.1c0,0,3,6,4.5,7s3.5,2.5,2.5,5s-1.5,7.5,1,10s4.5,9,3.5,11s-1.5,1.5-4-3s-5-4.5-4.5-9s-3.5,0-3,3
		s6,7,4,9s-7-2-7.5-6s-2-6.5-1.5-8.5s4-3.5,4.5-6.5s2-4,0-7S187.5,135.6,189.5,139.1z"/>
	<path class="st5" d="M164.5,129.1c0,0-0.5,1,0.5,1.5s-3.5,3-4.5,3s-5,0.5-6-1.5s1-2,2.5-1.5s5.5-1.5,5.5-1.5S165,127.6,164.5,129.1
		z"/>
	<path class="st5" d="M164.5,178.1c0,0-2,3,0,4s7.5,0.5,7-4s-0.5-5.5-4-5s-12.5-5-16-10s-7.5-10-10-9s-4-8-8-6s-8.5-1.5-13.5,2
		s-12,12-10.5,17s3-11.5,12.5-11.5s8.5,4,11.5,4.5s3.5,4.5,8,3.5s3.5,5,8.5,6.5S159.5,177.1,164.5,178.1z"/>
	<path class="st5" d="M108.4,250.1c7.7-9.6,4.7-23.9,3.5-31.3c-0.5,0.6-1.1,1.2-1.7,1.6c-0.3,0.2-0.6,0.3-0.8,0.3
		c-0.5,0-0.9-0.2-1.2-0.7c-0.5-0.7,0.1-1.4,0.8-1.9c1.1-0.8,1.6-2.5,2.2-4.1c0-0.1,0-0.1,0.1-0.2c2.2-6.1,1.8-16.6,1.2-22.3
		c-1,0-2-0.1-3.1-0.1c-0.9-0.1-1.5-0.9-1.5-1.8c0.1-0.9,0.9-1.6,1.7-1.5c7.1,0.6,12-0.9,14.5-4.5c5-7.3,0.1-19.6,0.1-19.7
		c-0.3-0.9-0.5-3.2,0.3-3.6c0.8-0.4,1.8,0,2.1,0.9c0.2,0.6,5.5,13.9,1,22.8c3.4-0.2,5.7-1.2,7-3.2c3-4.6,1-11.4,0.9-11.5
		c-0.3-0.8-1.6-3.3-0.9-3.7c0.7-0.4,1.6,0,2,0.8c0.2,0.4,4.3,10.1,0.4,16.2c-0.1,0.1-0.1,0.2-0.2,0.3c3.4,0.4,5.9-0.1,7.4-1.7
		c2.6-2.6,2.6-5.8,2.6-5.9c-0.2-0.8-0.6-3.3,0.2-3.5c0.8-0.2,1.5,0.4,1.7,1.2c0,0.2,1,5.3-1.5,9.1c0.1,0.1,0.1,0.3,0.1,0.4
		c0,0.1,0.2,1.3,0.3,3c4.3,1,7.3,0.7,8.5-0.7c1.3-1.6,1.2-4.5,1.2-4.6c-0.3-0.8-0.8-1.6,0-1.9c0.7-0.3,1.6,0.1,1.8,0.9
		c0.1,0.2,1.7,4.6-0.8,7.6c0,0,0,0,0,0c0.1,1.4,0.2,7.8-2.4,11.5c-0.1,2.2-0.7,10.6-5.4,13.6c-0.2,0.1-0.5,0.2-0.7,0.2
		c-0.5,0-1-0.3-1.2-0.7c-0.4-0.7,1-1.8,1.7-2.3c2.4-1.5,2.2-5.3,2.6-8.4c-0.6,0.2-1.2,0.3-1.9,0.3c-0.8,0-1.6-0.1-2.6-0.4
		c-0.7-0.2-1.2-1.1-0.9-1.9c0.2-0.8,1.6-0.3,2.3,0c1.5,0.5,3.4-0.7,4.3-1.5c2-1.6,1.4-5.8,1.4-8.6c-1,0.3-2,0.5-3.3,0.5
		c-1.3,0-2.7-0.5-4.3-0.9c-0.1,3.1-0.7,7.2-2.4,10c0.4,3,1.8,15.8-5.1,18.4c-0.2,0.1-0.3,0.1-0.5,0.1c-0.6,0-1.1-0.4-1.3-1
		c-0.3-0.8,1.5-2.2,2.3-2.5c3.6-1.4,2.5-7.7,2.1-12.3c-1.1,0.7-2.4,1.2-3.9,1.3c0,0-0.1,0-0.1,0c-0.7,0-1.3-0.6-1.4-1.4
		c-0.1-0.8,1.6-1.1,2.4-1.1c1.7-0.2,2.8-2.1,3.8-3.5c2.5-3.4,1.4-8.9,1.2-11.7c-1.5,1-3.5,1.4-5.8,1.4c-0.5,0-1,0-1.5-0.1
		c0.6,3.5,1,9.8-2,13.7c0.6,3.8,2.6,19.5-5.4,24c-0.2,0.1-0.5,0.2-0.7,0.2c-0.5,0-1.1-0.3-1.3-0.8c-0.4-0.8,0.6-2.3,1.3-2.7
		c5-2.8,4.1-12.5,3.4-18.4c-0.3,0.2-0.6,0.3-1,0.4c-0.2,0.1-0.3,0.1-0.5,0.1c-0.6,0-1.2-0.4-1.4-1c-0.3-0.8,1.1-1.2,1.9-1.5
		c5.4-2,3.3-11.1,2.6-14.3c-0.1,0-0.1,0-0.2,0c-1.9,1.2-4.4,1.8-7.5,1.8c0.5,3,2.2,15.2-1.2,21.9c0.8,3.5,4.1,21.1-5.5,30.7
		c-0.3,0.3-0.7,0.4-1,0.4c-0.4,0-0.8-0.2-1.1-0.5c-0.6-0.6,0.5-2.5,1.1-3.1c7-7,5-18.7,4.1-24.4c-1.3,1-2.9,1.6-4.7,1.6
		c-0.1,0-0.3,0-0.4,0c-0.8,0-1.5-0.8-1.4-1.6c0-0.9,1.1-1,2-0.9c1.7,0.1,2.5-1.1,3.5-2.3c3.4-4.2,2.7-15.2,1.9-20.5
		c-2.2,1.6-5,2.6-8.4,3c0.5,4.6,1.3,15.7-1.2,23.1c0.9,3.7,5.5,26-5,39c-0.3,0.4-0.7,0.6-1.1,0.6c-0.3,0-0.7-0.1-1-0.4
		C106.3,253.2,107.9,250.7,108.4,250.1z"/>
	<path class="st5" d="M120.2,166c0,0,2,0,1,3.7s2,7-1,8.2c-3,1.2-4.4,1.6-5.1,0.4c-0.7-1.2,2-3.7,1.7-4.9c-0.3-1.2-1-2.5-0.7-4.1
		C116.5,167.7,117.8,165.2,120.2,166z"/>
	<path class="st5" d="M171.5,188.6v16c0,0-2,3.5-4.5,1.5s1.5-3.5,1-6s-3.5-3.5-3.5-5.5s1-3.5,2.5-4.5S169,187.1,171.5,188.6z"/>
	<path class="st5" d="M171.5,209.6v7c0,0-2,0-2.5-1.5S167.5,209.6,171.5,209.6z"/>
	<path class="st5" d="M155.5,236.6c1.4-2.5,6.7-6.4,12-5.4c5.3,1,4.8,7.4,9.6,8.4c4.8,1,6.7,3,9.1,4.9c0,0,4.8,2.5,4.8,6.9
		s7.7,9.9,7.7,11.8s2.4,7.9-1.4,5.9c-1-0.5-1.8-1.4-2.4-2.5c-1.7,8.5-4.8,27.6-3.3,44.3c0.1,0.9-0.5,1.6-1.4,1.7c0,0-0.1,0-0.1,0
		c-0.8,0-0.9-3.7-1-4.5c-1.8-20.7,2.7-41.7,3.7-46c-0.6-1-1.2-1.5-2.2-0.8c-1.8,1.2-2.9,2.7-3.9,3.1c-2,6.7-4.9,19.5-4.3,36.3
		c0,0.9-0.6,1.6-1.5,1.6c0,0,0,0-0.1,0c-0.8,0-0.4-4.2-0.5-5c-0.7-18.4,1.6-28.4,3.7-35c-1.2-4.6-1.2-17.3-4.2-17.8
		c-3.4-0.5-4.3,1.5-4.8,4.9c-0.5,3.5-1,5.9-2.4,3.9c-1.4-2,1.4-15.8-1-14.3c-2.4,1.5-1.4,21.7-3.8,22.7c-2.4,1-0.5-24.2-2.4-22.7
		c-1.9,1.5-0.5,24.7-3.4,27.6c-2.9,3,0-32-2.4-30.1c-2.4,2-0.5,32-3.4,32C153.5,268.7,154,239.1,155.5,236.6z"/>
	<path class="st5" d="M162,199.1c0,0,2,3.5,0.5,5s-2.5-1-3.5-0.5s-2-1-0.5-2.5S161.5,197.6,162,199.1z"/>
	<path d="M243.5,120.5c0,0,21,10.1,29,9.6s11-6,8.5-15c-1.5-5.5-1.8,3.8-2.8,5.8s-2.8,5.4-12.4,2.9c-9.6-2.4-15.4-5.1-21.8-5.7
		L243.5,120.5z"/>
	<path class="st4" d="M250.5,121.1c0,0,16.6,7,21.1,7s9.4-1.6,8.9-8c0-3.1-0.5,1.1-2.5,3.5c-1.5,1.8-3.4,2.3-6.7,2
		c-7.6-0.7-21.1-5.2-21.1-5.2L250.5,121.1z"/>
	<path class="st5" d="M231,126.1c0,0-2,1,0,1.5c2,0.5,4.5-1.5,7,0c2.5,1.5-6.5,6.5-7,8s-6,2.5-6.5-1.5s-3-4-4-2.5s-5,3.5-6,0.5
		s7-5.5,9.5-8s5-4,5-6s5-4,6.5-2.5s3.5,1,5.5,0.5s2.5-2.5,4-2.5s5.5,1.5,7.5,0s4-3.5,6.5-3s6,2,5.5,3.5s-5-1-8.5,2.5c-3,3-4,3-7,3.5
		s-9.5-1.5-14,1.5S234.5,125.1,231,126.1z"/>
	<path class="st5" d="M250.5,109.6c0,0,1,2-1.5,2.5s-5-2.5-7.5-1.5s-6.5,2-9,3s-4,3.5-7.5,2c-2-0.5,5-1.5,6-3s7.5-6.5,10-7
		S248.5,104.1,250.5,109.6z"/>
	<path class="st5" d="M221,143.6c0,0-3,2-2.5,5s1.5,4.5,3.5,4s-0.5-5.5,1.5-6.5s1-4,2-4s3.5,1,3-2s-3.5-3-4-1.5S222,143.1,221,143.6
		z"/>
	<path class="st5" d="M216.5,139.1c0,0-3,6-4.5,7s-3.5,2.5-2.5,5s1.5,7.5-1,10s-4.5,9-3.5,11s1.5,1.5,4-3s5-4.5,4.5-9s3.5,0,3,3
		s-6,7-4,9s7-2,7.5-6s2-6.5,1.5-8.5s-4-3.5-4.5-6.5s-2-4,0-7S218.5,135.6,216.5,139.1z"/>
	<path class="st5" d="M241.5,129.1c0,0,0.5,1-0.5,1.5s3.5,3,4.5,3s5,0.5,6-1.5s-1-2-2.5-1.5s-5.5-1.5-5.5-1.5S241,127.6,241.5,129.1
		z"/>
	<path class="st5" d="M241.5,178.1c0,0,2,3,0,4s-7.5,0.5-7-4s0.5-5.5,4-5s12.5-5,16-10s7.5-10,10-9s4-8,8-6s8.5-1.5,13.5,2
		s12,12,10.5,17s-3-11.5-12.5-11.5s-8.5,4-11.5,4.5s-3.5,4.5-8,3.5s-3.5,5-8.5,6.5S246.5,177.1,241.5,178.1z"/>
	<path class="st5" d="M297.6,250.1c-7.7-9.6-4.7-23.9-3.5-31.3c0.5,0.6,1.1,1.2,1.7,1.6c0.3,0.2,0.6,0.3,0.8,0.3
		c0.5,0,0.9-0.2,1.2-0.7c0.5-0.7-0.1-1.4-0.8-1.9c-1.1-0.8-1.6-2.5-2.2-4.1c0-0.1,0-0.1-0.1-0.2c-2.2-6.1-1.8-16.6-1.2-22.3
		c1,0,2-0.1,3.1-0.1c0.9-0.1,1.5-0.9,1.5-1.8c-0.1-0.9-0.9-1.6-1.7-1.5c-7.1,0.6-12-0.9-14.5-4.5c-5-7.3-0.1-19.6-0.1-19.7
		c0.3-0.9,0.5-3.2-0.3-3.6c-0.8-0.4-1.8,0-2.1,0.9c-0.2,0.6-5.5,13.9-1,22.8c-3.4-0.2-5.7-1.2-7-3.2c-3-4.6-1-11.4-0.9-11.5
		c0.3-0.8,1.6-3.3,0.9-3.7c-0.7-0.4-1.6,0-2,0.8c-0.2,0.4-4.3,10.1-0.4,16.2c0.1,0.1,0.1,0.2,0.2,0.3c-3.4,0.4-5.9-0.1-7.4-1.7
		c-2.6-2.6-2.6-5.8-2.6-5.9c0.2-0.8,0.6-3.3-0.2-3.5c-0.8-0.2-1.5,0.4-1.7,1.2c0,0.2-1,5.3,1.5,9.1c-0.1,0.1-0.1,0.3-0.1,0.4
		c0,0.1-0.2,1.3-0.3,3c-4.3,1-7.3,0.7-8.5-0.7c-1.3-1.6-1.2-4.5-1.2-4.6c0.3-0.8,0.8-1.6,0-1.9c-0.7-0.3-1.6,0.1-1.8,0.9
		c-0.1,0.2-1.7,4.6,0.8,7.6c0,0,0,0,0,0c-0.1,1.4-0.2,7.8,2.4,11.5c0.1,2.2,0.7,10.6,5.4,13.6c0.2,0.1,0.5,0.2,0.7,0.2
		c0.5,0,1-0.3,1.2-0.7c0.4-0.7-1-1.8-1.7-2.3c-2.4-1.5-2.2-5.3-2.6-8.4c0.6,0.2,1.2,0.3,1.9,0.3c0.8,0,1.6-0.1,2.6-0.4
		c0.7-0.2,1.2-1.1,0.9-1.9c-0.2-0.8-1.6-0.3-2.3,0c-1.5,0.5-3.4-0.7-4.3-1.5c-2-1.6-1.4-5.8-1.4-8.6c1,0.3,2,0.5,3.3,0.5
		c1.3,0,2.7-0.5,4.3-0.9c0.1,3.1,0.7,7.2,2.4,10c-0.4,3-1.8,15.8,5.1,18.4c0.2,0.1,0.3,0.1,0.5,0.1c0.6,0,1.1-0.4,1.3-1
		c0.3-0.8-1.5-2.2-2.3-2.5c-3.6-1.4-2.5-7.7-2.1-12.3c1.1,0.7,2.4,1.2,3.9,1.3c0,0,0.1,0,0.1,0c0.7,0,1.3-0.6,1.4-1.4
		c0.1-0.8-1.6-1.1-2.4-1.1c-1.7-0.2-2.8-2.1-3.8-3.5c-2.5-3.4-1.4-8.9-1.2-11.7c1.5,1,3.5,1.4,5.8,1.4c0.5,0,1,0,1.5-0.1
		c-0.6,3.5-1,9.8,2,13.7c-0.6,3.8-2.6,19.5,5.4,24c0.2,0.1,0.5,0.2,0.7,0.2c0.5,0,1.1-0.3,1.3-0.8c0.4-0.8-0.6-2.3-1.3-2.7
		c-5-2.8-4.1-12.5-3.4-18.4c0.3,0.2,0.6,0.3,1,0.4c0.2,0.1,0.3,0.1,0.5,0.1c0.6,0,1.2-0.4,1.4-1c0.3-0.8-1.1-1.2-1.9-1.5
		c-5.4-2-3.3-11.1-2.6-14.3c0.1,0,0.1,0,0.2,0c1.9,1.2,4.4,1.8,7.5,1.8c-0.5,3-2.2,15.2,1.2,21.9c-0.8,3.5-4.1,21.1,5.5,30.7
		c0.3,0.3,0.7,0.4,1,0.4c0.4,0,0.8-0.2,1.1-0.5c0.6-0.6-0.5-2.5-1.1-3.1c-7-7-5-18.7-4.1-24.4c1.3,1,2.9,1.6,4.7,1.6
		c0.1,0,0.3,0,0.4,0c0.8,0,1.5-0.8,1.4-1.6c0-0.9-1.1-1-2-0.9c-1.7,0.1-2.5-1.1-3.5-2.3c-3.4-4.2-2.7-15.2-1.9-20.5
		c2.2,1.6,5,2.6,8.4,3c-0.5,4.6-1.3,15.7,1.2,23.1c-0.9,3.7-5.5,26,5,39c0.3,0.4,0.7,0.6,1.1,0.6c0.3,0,0.7-0.1,1-0.4
		C299.7,253.2,298.1,250.7,297.6,250.1z"/>
	<path class="st5" d="M285.8,166c0,0-2,0-1,3.7s-2,7,1,8.2c3,1.2,4.4,1.6,5.1,0.4c0.7-1.2-2-3.7-1.7-4.9c0.3-1.2,1-2.5,0.7-4.1
		C289.5,167.7,288.2,165.2,285.8,166z"/>
	<path class="st5" d="M234.5,188.6v16c0,0,2,3.5,4.5,1.5s-1.5-3.5-1-6s3.5-3.5,3.5-5.5s-1-3.5-2.5-4.5S237,187.1,234.5,188.6z"/>
	<path class="st5" d="M234.5,209.6v7c0,0,2,0,2.5-1.5S238.5,209.6,234.5,209.6z"/>
	<path class="st5" d="M250.6,236.6c-1.4-2.5-6.7-6.4-11.9-5.4c-5.2,1-4.8,7.4-9.5,8.4c-4.8,1-6.7,3-9,4.9c0,0-4.8,2.5-4.8,6.9
		s-7.6,9.9-7.6,11.8s-2.4,7.9,1.4,5.9c1-0.5,1.7-1.4,2.3-2.5c1.6,8.5,4.7,27.6,3.3,44.3c-0.1,0.9,0.5,1.6,1.4,1.7c0,0,0.1,0,0.1,0
		c0.8,0,0.9-3.2,0.9-4c1.7-20.7-2.7-42.2-3.6-46.5c0.6-1,1.2-1.5,2.2-0.8c1.8,1.2,2.8,2.7,3.8,3.1c2,6.7,4.8,19.5,4.2,36.3
		c0,0.9,0.6,1.6,1.4,1.6c0,0,0,0,0.1,0c0.8,0,0.4-4.2,0.5-5c0.7-18.4-1.6-28.4-3.6-35c1.2-4.6,1.2-17.3,4.1-17.8
		c3.3-0.5,4.3,1.5,4.8,4.9c0.5,3.5,1,5.9,2.4,3.9c1.4-2-1.4-15.8,1-14.3s1.4,21.7,3.8,22.7c2.4,1,0.5-24.2,2.4-22.7
		s0.5,24.7,3.3,27.6s0-32,2.4-30.1c2.4,2,0.5,32,3.3,32C252.5,268.7,252,239.1,250.6,236.6z"/>
	<path d="M203,247.1c-4.4,0-6.7-4.5-8.1-7.6l-0.2-0.5c-1-2-5.8-3.5-11-3.5c-0.7,0-1.4,0-2.1,0.1c-0.3,0-0.6,0-0.8,0
		c-4.5,0-5.8-3.6-5.8-5.5v-58.7c0-0.6,0.4-1,1-1h54c0.6,0,1,0.4,1,1v58.7c0,0.1,0,1.4-0.7,2.7c-0.7,1.3-2.1,2.8-5,2.8l0,0
		c-0.3,0-0.6,0-0.8,0c-0.7-0.1-1.4-0.1-2.1-0.1c-5.1,0-10,1.6-11,3.5l-0.2,0.5C209.7,242.5,207.4,247.1,203,247.1z"/>
	<path class="st1" d="M203,171.4h-27v58.7c0,0,0,5,5.5,4.5s12.5,1,14,4s3.5,7.5,7.5,7.5s6-4.5,7.5-7.5s8.5-4.5,14-4s5.5-4.5,5.5-4.5
		v-58.7H203z"/>
	<path d="M203,241.1C203,241.1,203,241.1,203,241.1c-0.8-0.3-2.2-3.1-2.8-4.2l-0.3-0.5c-3.3-6.5-14.2-6.9-16.3-6.9
		c-0.9,0-1.8,0-2.6,0.1c0,0,0,0,0,0v-53.2h44v53.2c0,0,0,0,0,0c-0.8-0.1-1.7-0.1-2.6-0.1c-2.2,0-13.1,0.3-16.3,6.9l-0.3,0.5
		C205.2,237.9,203.8,240.8,203,241.1L203,241.1z"/>
	<path class="st0" d="M203,239.7c-0.3-0.5-0.9-1.4-1.9-3.3l-0.3-0.5c-3.5-7.1-15-7.4-17.2-7.4c-0.6,0-1.1,0-1.7,0v-51.1h42v51.1
		c-0.5,0-1.1,0-1.7,0c-2.3,0-13.7,0.4-17.2,7.4l-0.3,0.5C203.9,238.3,203.3,239.3,203,239.7z"/>
	<path class="st5" d="M244,199.1c0,0-2,3.5-0.5,5s2.5-1,3.5-0.5s2-1,0.5-2.5S244.5,197.6,244,199.1z"/>
	<path class="st5" d="M206,249.6c-2.5,2.5-6,1.5-7-0.5s-3.5-3.5-3.5-1.5c0,0-0.5,4.5,1.5,6.5c1.8,1.8,2.8,4.9,4.5,5.4v58.1
		c0,0.8,0.7,4,1.5,4s1.5-4.2,1.5-5V259c1.8-0.7,3.8-2.3,4.5-5c1-4,2.5-4,2.5-5.5S208.5,247.1,206,249.6z"/>
	<polygon points="200,230.1 200,220.3 191.5,217 191.5,210.3 200,213.6 200,207.6 187,207.6 187,201.1 200,201.1 200,194.1 
		191.5,194.1 191.5,187.6 200,187.6 200,180.6 207,180.6 207,187.6 215.5,187.6 215.5,194.1 207,194.1 207,201.1 220,201.1 
		220,207.6 207,207.6 207,216.3 215.5,219.6 215.5,226.3 207,223 207,230.1 	"/>
	<polygon class="st1" points="219,206.6 219,202.1 206,202.1 206,193.1 214.5,193.1 214.5,188.6 206,188.6 206,181.6 201,181.6 
		201,188.6 192.5,188.6 192.5,193.1 201,193.1 201,202.1 188,202.1 188,206.6 201,206.6 201,215.1 192.5,211.8 192.5,216.3 
		201,219.6 201,229.1 206,229.1 206,221.5 214.5,224.8 214.5,220.3 206,217 206,206.6 	"/>
</g>
</svg>
