<?xml version="1.0" encoding="UTF-8" standalone="no"?>
<svg
   width="847"
   height="497"
   version="1.1"
   id="svg10"
   sodipodi:docname="Flag_of_the_Mountain_Republic.svg"
   inkscape:version="1.2.2 (732a01da63, 2022-12-09)"
   xmlns:inkscape="http://www.inkscape.org/namespaces/inkscape"
   xmlns:sodipodi="http://sodipodi.sourceforge.net/DTD/sodipodi-0.dtd"
   xmlns="http://www.w3.org/2000/svg"
   xmlns:svg="http://www.w3.org/2000/svg">
  <defs
     id="defs14" />
  <sodipodi:namedview
     id="namedview12"
     pagecolor="#ffffff"
     bordercolor="#000000"
     borderopacity="0.25"
     inkscape:showpageshadow="2"
     inkscape:pageopacity="0.0"
     inkscape:pagecheckerboard="0"
     inkscape:deskcolor="#d1d1d1"
     showgrid="false"
     inkscape:zoom="17.49818"
     inkscape:cx="25.51694"
     inkscape:cy="395.04109"
     inkscape:window-width="2560"
     inkscape:window-height="1351"
     inkscape:window-x="-9"
     inkscape:window-y="-9"
     inkscape:window-maximized="1"
     inkscape:current-layer="svg10" />
  <path
     fill="#ffffff"
     d="M 0,-0.12905024 H 848.63843 V 496.87095 H 0 Z"
     id="path2"
     style="stroke-width:1.00075" />
  <path
     fill="#176d24"
     d="m 0,285.01236 h 847.36966 v 71 H 0 Z m 0,-143 h 847.36966 v 71 H 0 Z M -4.14e-6,0.01236187 H 847.36965 V 71.012362 H -4.14e-6 Z M 0,426.01236 h 847.36966 v 71 H 0 Z"
     id="path4" />
  <path
     fill="#1370bd"
     d="M 0,-0.1290755 H 329.80538 V 212.62326 H 0 Z"
     id="path6"
     style="stroke-width:1.00193" />
  <path
     fill="#efe032"
     d="m233.48869783 106.31846077 15.96934476-4.9020402V85.55562088l9.8708266 12.83154909 15.9721747-4.9002583-9.86988329 12.8315491 9.8698833 12.83065813-15.9721747-4.89936734-9.87082661 12.83154909v-15.86169063zM224.7502775 54.7939968l-9.8698833 12.8315491 9.8698833 12.83065814-15.9721747-4.89936735-9.87082661 12.8315491V72.52669515l-15.96934476-4.90114925 15.96934476-4.90204021V46.862706l9.8708266 12.8315491zm-38.70654637 91.71882437 15.96934476-4.90204021v-15.86079968l9.8708266 12.8315491 15.9721747-4.9002583-9.86988329 12.83154909 9.8698833 12.83065813-15.9721747-4.89936734-9.87082661 12.8315491v-15.86169064zm-51.73706354-73.36497121-15.96934476-4.90114925 15.96934476-4.9020402v-15.8607997l9.8708266 12.8315491 15.9721747-4.9002583-9.86988329 12.8315491 9.8698833 12.83065813-15.9721747-4.89936735-9.87082661 12.8315491zm-63.358284 15.86169064V73.14784996l-15.96934476-4.90114925 15.96934476-4.9020402v-15.8607997l9.8708266 12.8315491 15.9721747-4.9002583-9.86988329 12.8315491 9.8698833 12.83065813-15.9721747-4.89936735zm17.47405801 59.21311026 9.8698833 12.83065813-15.9721747-4.89936734-9.87082661 12.8315491V153.1238001l-15.96934476-4.90114925 15.96934476-4.90204021v-15.86079968l9.8708266 12.8315491 15.9721747-4.9002583zm57.6185326-9.64112049 15.9721747-4.9002583-9.8698833 12.8315491 9.8698833 12.83065813-15.9721747-4.89936734-9.87082661 12.8315491v-15.86169064l-15.96934476-4.90114925 15.96934476-4.90204021v-15.86079968z"
     id="path8" />
</svg>
